<mxfile host="app.diagrams.net" modified="2023-04-17T09:50:50.009Z" agent="Mozilla/5.0 (Macintosh; Intel Mac OS X 10.15; rv:109.0) Gecko/20100101 Firefox/111.0" etag="A3QcI58gj11vyKhIwH-t" version="21.1.5" type="github">
  <diagram id="kuW590udwi2ajWvtAZzO" name="Page-1">
    <mxGraphModel dx="1702" dy="600" grid="1" gridSize="10" guides="1" tooltips="1" connect="1" arrows="1" fold="1" page="1" pageScale="1" pageWidth="827" pageHeight="1169" math="0" shadow="0">
      <root>
        <mxCell id="0" />
        <mxCell id="1" parent="0" />
        <mxCell id="ExiZxwpG2MiMaMcONg0X-1" value="&lt;font style=&quot;font-size: 18px;&quot;&gt;@frontend-framework/Identity&lt;/font&gt;" style="rounded=0;whiteSpace=wrap;html=1;" parent="1" vertex="1">
          <mxGeometry x="240" y="200" width="260" height="60" as="geometry" />
        </mxCell>
        <mxCell id="ExiZxwpG2MiMaMcONg0X-2" value="" style="endArrow=classic;startArrow=classic;html=1;rounded=0;fontSize=18;exitX=0.526;exitY=-0.067;exitDx=0;exitDy=0;exitPerimeter=0;entryX=0.473;entryY=1.017;entryDx=0;entryDy=0;entryPerimeter=0;" parent="1" source="ExiZxwpG2MiMaMcONg0X-3" target="ExiZxwpG2MiMaMcONg0X-1" edge="1">
          <mxGeometry width="50" height="50" relative="1" as="geometry">
            <mxPoint x="190" y="410" as="sourcePoint" />
            <mxPoint x="360" y="260" as="targetPoint" />
          </mxGeometry>
        </mxCell>
        <mxCell id="ExiZxwpG2MiMaMcONg0X-3" value="Identity-core" style="rounded=0;whiteSpace=wrap;html=1;fontSize=18;" parent="1" vertex="1">
          <mxGeometry x="220" y="420" width="270" height="60" as="geometry" />
        </mxCell>
        <mxCell id="ExiZxwpG2MiMaMcONg0X-4" value="Identity-react" style="rounded=0;whiteSpace=wrap;html=1;fontSize=18;" parent="1" vertex="1">
          <mxGeometry x="-50" y="620" width="270" height="60" as="geometry" />
        </mxCell>
        <mxCell id="ExiZxwpG2MiMaMcONg0X-6" value="" style="endArrow=classic;startArrow=classic;html=1;rounded=0;fontSize=18;exitX=0.5;exitY=0;exitDx=0;exitDy=0;" parent="1" source="ExiZxwpG2MiMaMcONg0X-4" edge="1">
          <mxGeometry width="50" height="50" relative="1" as="geometry">
            <mxPoint x="310" y="640" as="sourcePoint" />
            <mxPoint x="315" y="480" as="targetPoint" />
          </mxGeometry>
        </mxCell>
        <mxCell id="ExiZxwpG2MiMaMcONg0X-7" value="Identity-angular" style="rounded=0;whiteSpace=wrap;html=1;fontSize=18;" parent="1" vertex="1">
          <mxGeometry x="235" y="620" width="270" height="60" as="geometry" />
        </mxCell>
        <mxCell id="ExiZxwpG2MiMaMcONg0X-8" value="" style="endArrow=classic;startArrow=classic;html=1;rounded=0;fontSize=18;exitX=0.5;exitY=0;exitDx=0;exitDy=0;entryX=0.619;entryY=1;entryDx=0;entryDy=0;entryPerimeter=0;" parent="1" source="ExiZxwpG2MiMaMcONg0X-7" target="ExiZxwpG2MiMaMcONg0X-3" edge="1">
          <mxGeometry width="50" height="50" relative="1" as="geometry">
            <mxPoint x="200" y="620" as="sourcePoint" />
            <mxPoint x="360" y="480" as="targetPoint" />
            <Array as="points" />
          </mxGeometry>
        </mxCell>
        <mxCell id="ExiZxwpG2MiMaMcONg0X-9" value="etc.." style="rounded=0;whiteSpace=wrap;html=1;fontSize=18;" parent="1" vertex="1">
          <mxGeometry x="520" y="620" width="270" height="60" as="geometry" />
        </mxCell>
        <mxCell id="ExiZxwpG2MiMaMcONg0X-10" value="" style="endArrow=classic;startArrow=classic;html=1;rounded=0;fontSize=18;exitX=0.5;exitY=0;exitDx=0;exitDy=0;" parent="1" source="ExiZxwpG2MiMaMcONg0X-9" edge="1">
          <mxGeometry width="50" height="50" relative="1" as="geometry">
            <mxPoint x="460.0000000000001" y="618.02" as="sourcePoint" />
            <mxPoint x="463.89" y="480" as="targetPoint" />
          </mxGeometry>
        </mxCell>
        <mxCell id="d_bkBHS-3x23rhl3ambO-1" value="" style="rounded=1;arcSize=10;dashed=0;fillColor=none;gradientColor=none;strokeWidth=2;" parent="1" vertex="1">
          <mxGeometry x="-720" y="70" width="720" height="440" as="geometry" />
        </mxCell>
        <mxCell id="YbPeNYCbb-VirTyepQkY-1" value="" style="sketch=0;points=[[0,0,0],[0.25,0,0],[0.5,0,0],[0.75,0,0],[1,0,0],[0,1,0],[0.25,1,0],[0.5,1,0],[0.75,1,0],[1,1,0],[0,0.25,0],[0,0.5,0],[0,0.75,0],[1,0.25,0],[1,0.5,0],[1,0.75,0]];outlineConnect=0;fontColor=#232F3E;gradientColor=#4D72F3;gradientDirection=north;fillColor=#3334B9;strokeColor=#ffffff;dashed=0;verticalLabelPosition=bottom;verticalAlign=top;align=center;html=1;fontSize=12;fontStyle=0;aspect=fixed;shape=mxgraph.aws4.resourceIcon;resIcon=mxgraph.aws4.codebuild;" parent="1" vertex="1">
          <mxGeometry x="-430" y="150" width="110" height="110" as="geometry" />
        </mxCell>
        <mxCell id="YbPeNYCbb-VirTyepQkY-2" value="" style="sketch=0;points=[[0,0,0],[0.25,0,0],[0.5,0,0],[0.75,0,0],[1,0,0],[0,1,0],[0.25,1,0],[0.5,1,0],[0.75,1,0],[1,1,0],[0,0.25,0],[0,0.5,0],[0,0.75,0],[1,0.25,0],[1,0.5,0],[1,0.75,0]];outlineConnect=0;fontColor=#232F3E;gradientColor=#4D72F3;gradientDirection=north;fillColor=#3334B9;strokeColor=#ffffff;dashed=0;verticalLabelPosition=bottom;verticalAlign=top;align=center;html=1;fontSize=12;fontStyle=0;aspect=fixed;shape=mxgraph.aws4.resourceIcon;resIcon=mxgraph.aws4.codepipeline;" parent="1" vertex="1">
          <mxGeometry x="-690" y="30" width="78" height="78" as="geometry" />
        </mxCell>
        <mxCell id="YbPeNYCbb-VirTyepQkY-3" value="" style="sketch=0;points=[[0,0,0],[0.25,0,0],[0.5,0,0],[0.75,0,0],[1,0,0],[0,1,0],[0.25,1,0],[0.5,1,0],[0.75,1,0],[1,1,0],[0,0.25,0],[0,0.5,0],[0,0.75,0],[1,0.25,0],[1,0.5,0],[1,0.75,0]];outlineConnect=0;fontColor=#232F3E;gradientColor=#4D72F3;gradientDirection=north;fillColor=#3334B9;strokeColor=#ffffff;dashed=0;verticalLabelPosition=bottom;verticalAlign=top;align=center;html=1;fontSize=12;fontStyle=0;aspect=fixed;shape=mxgraph.aws4.resourceIcon;resIcon=mxgraph.aws4.codecommit;" parent="1" vertex="1">
          <mxGeometry x="-650" y="200" width="110" height="110" as="geometry" />
        </mxCell>
        <mxCell id="YbPeNYCbb-VirTyepQkY-4" value="" style="sketch=0;points=[[0,0,0],[0.25,0,0],[0.5,0,0],[0.75,0,0],[1,0,0],[0,1,0],[0.25,1,0],[0.5,1,0],[0.75,1,0],[1,1,0],[0,0.25,0],[0,0.5,0],[0,0.75,0],[1,0.25,0],[1,0.5,0],[1,0.75,0]];outlineConnect=0;fontColor=#232F3E;gradientColor=#4D72F3;gradientDirection=north;fillColor=#3334B9;strokeColor=#ffffff;dashed=0;verticalLabelPosition=bottom;verticalAlign=top;align=center;html=1;fontSize=12;fontStyle=0;aspect=fixed;shape=mxgraph.aws4.resourceIcon;resIcon=mxgraph.aws4.codedeploy;" parent="1" vertex="1">
          <mxGeometry x="-200" y="200" width="110" height="110" as="geometry" />
        </mxCell>
        <mxCell id="YbPeNYCbb-VirTyepQkY-6" value="Code Commit" style="text;html=1;strokeColor=#6c8ebf;fillColor=#dae8fc;align=center;verticalAlign=middle;whiteSpace=wrap;rounded=0;fontStyle=1;fontFamily=Verdana;" parent="1" vertex="1">
          <mxGeometry x="-650" y="320" width="110" height="50" as="geometry" />
        </mxCell>
        <mxCell id="YbPeNYCbb-VirTyepQkY-8" value="Code Build" style="text;html=1;strokeColor=#6c8ebf;fillColor=#dae8fc;align=center;verticalAlign=middle;whiteSpace=wrap;rounded=0;fontStyle=1;fontFamily=Verdana;" parent="1" vertex="1">
          <mxGeometry x="-430" y="90" width="110" height="50" as="geometry" />
        </mxCell>
        <mxCell id="YbPeNYCbb-VirTyepQkY-9" value="Code Deploy" style="text;html=1;strokeColor=#6c8ebf;fillColor=#dae8fc;align=center;verticalAlign=middle;whiteSpace=wrap;rounded=0;fontStyle=1;fontFamily=Verdana;" parent="1" vertex="1">
          <mxGeometry x="-200" y="320" width="110" height="50" as="geometry" />
        </mxCell>
        <mxCell id="YbPeNYCbb-VirTyepQkY-11" value="" style="endArrow=classic;html=1;rounded=0;" parent="1" source="YbPeNYCbb-VirTyepQkY-3" target="YbPeNYCbb-VirTyepQkY-1" edge="1">
          <mxGeometry width="50" height="50" relative="1" as="geometry">
            <mxPoint x="-530" y="240" as="sourcePoint" />
            <mxPoint x="-480" y="190" as="targetPoint" />
          </mxGeometry>
        </mxCell>
        <mxCell id="YbPeNYCbb-VirTyepQkY-12" value="" style="endArrow=classic;html=1;rounded=0;exitX=1;exitY=0.5;exitDx=0;exitDy=0;exitPerimeter=0;" parent="1" source="YbPeNYCbb-VirTyepQkY-1" edge="1">
          <mxGeometry width="50" height="50" relative="1" as="geometry">
            <mxPoint x="-320" y="250" as="sourcePoint" />
            <mxPoint x="-200" y="250" as="targetPoint" />
          </mxGeometry>
        </mxCell>
        <mxCell id="YbPeNYCbb-VirTyepQkY-13" value="Code Pipeline" style="text;html=1;strokeColor=none;fillColor=none;align=center;verticalAlign=middle;whiteSpace=wrap;rounded=0;fontStyle=1;fontFamily=Verdana;" parent="1" vertex="1">
          <mxGeometry x="-612" y="30" width="110" height="50" as="geometry" />
        </mxCell>
        <mxCell id="YbPeNYCbb-VirTyepQkY-14" value="" style="sketch=0;points=[[0,0,0],[0.25,0,0],[0.5,0,0],[0.75,0,0],[1,0,0],[0,1,0],[0.25,1,0],[0.5,1,0],[0.75,1,0],[1,1,0],[0,0.25,0],[0,0.5,0],[0,0.75,0],[1,0.25,0],[1,0.5,0],[1,0.75,0]];outlineConnect=0;fontColor=#232F3E;gradientColor=#F78E04;gradientDirection=north;fillColor=#D05C17;strokeColor=#ffffff;dashed=0;verticalLabelPosition=bottom;verticalAlign=top;align=center;html=1;fontSize=12;fontStyle=0;aspect=fixed;shape=mxgraph.aws4.resourceIcon;resIcon=mxgraph.aws4.ecr;" parent="1" vertex="1">
          <mxGeometry x="-414" y="370" width="78" height="78" as="geometry" />
        </mxCell>
        <mxCell id="YbPeNYCbb-VirTyepQkY-15" value="&lt;div&gt;ECR&lt;/div&gt;" style="text;html=1;strokeColor=none;fillColor=none;align=center;verticalAlign=middle;whiteSpace=wrap;rounded=0;fontStyle=1;fontFamily=Verdana;" parent="1" vertex="1">
          <mxGeometry x="-430" y="440" width="110" height="50" as="geometry" />
        </mxCell>
        <mxCell id="YbPeNYCbb-VirTyepQkY-16" value="" style="endArrow=classic;html=1;rounded=0;exitX=0.5;exitY=1;exitDx=0;exitDy=0;exitPerimeter=0;entryX=0.5;entryY=0;entryDx=0;entryDy=0;entryPerimeter=0;" parent="1" source="Ur0gAjM8PCmy5QglzEbc-3" target="YbPeNYCbb-VirTyepQkY-14" edge="1">
          <mxGeometry width="50" height="50" relative="1" as="geometry">
            <mxPoint x="-370" y="310" as="sourcePoint" />
            <mxPoint x="-260" y="285" as="targetPoint" />
          </mxGeometry>
        </mxCell>
        <mxCell id="YbPeNYCbb-VirTyepQkY-17" value="push images to ECR" style="text;html=1;strokeColor=none;fillColor=none;align=center;verticalAlign=middle;whiteSpace=wrap;rounded=0;fontStyle=1;fontFamily=Verdana;" parent="1" vertex="1">
          <mxGeometry x="-380" y="290" width="86" height="50" as="geometry" />
        </mxCell>
        <mxCell id="Ur0gAjM8PCmy5QglzEbc-1" value="Souce code" style="text;html=1;strokeColor=none;fillColor=none;align=center;verticalAlign=middle;whiteSpace=wrap;rounded=0;fontStyle=1;fontFamily=Verdana;" vertex="1" parent="1">
          <mxGeometry x="-650" y="160" width="110" height="50" as="geometry" />
        </mxCell>
        <mxCell id="Ur0gAjM8PCmy5QglzEbc-4" value="" style="endArrow=classic;html=1;rounded=0;exitX=0.5;exitY=1;exitDx=0;exitDy=0;exitPerimeter=0;entryX=0.5;entryY=0;entryDx=0;entryDy=0;entryPerimeter=0;" edge="1" parent="1" source="YbPeNYCbb-VirTyepQkY-1" target="Ur0gAjM8PCmy5QglzEbc-3">
          <mxGeometry width="50" height="50" relative="1" as="geometry">
            <mxPoint x="-375" y="260" as="sourcePoint" />
            <mxPoint x="-375" y="370" as="targetPoint" />
          </mxGeometry>
        </mxCell>
        <mxCell id="Ur0gAjM8PCmy5QglzEbc-3" value="Build stage" style="text;html=1;strokeColor=none;fillColor=none;align=center;verticalAlign=middle;whiteSpace=wrap;rounded=0;fontStyle=1;fontFamily=Verdana;" vertex="1" parent="1">
          <mxGeometry x="-430" y="250" width="110" height="50" as="geometry" />
        </mxCell>
        <mxCell id="Ur0gAjM8PCmy5QglzEbc-5" value="deploy docker images to ECS" style="text;html=1;strokeColor=none;fillColor=none;align=center;verticalAlign=middle;whiteSpace=wrap;rounded=0;fontStyle=1;fontFamily=Verdana;" vertex="1" parent="1">
          <mxGeometry x="-210" y="150" width="110" height="50" as="geometry" />
        </mxCell>
      </root>
    </mxGraphModel>
  </diagram>
</mxfile>
